<svg id="Layer_1" data-name="Layer 1" xmlns="http://www.w3.org/2000/svg" viewBox="0 0 241.32 134.13"><defs><clipPath id="clip-path"><path fill="none" d="M0 0h241.32v134.13H0z"/></clipPath><style>.cls-4{fill:none}.cls-3{fill:#fefefe;fill-rule:evenodd}.cls-4{stroke:#1d68b0;stroke-miterlimit:22.93;stroke-width:8px}.cls-5{fill:#e41d37}.cls-6{fill:#1d68b0}</style></defs><g clip-path="url(#clip-path)"><path class="cls-3" d="M67.06 4A63.06 63.06 0 114 67.06 63.06 63.06 0 0167.06 4"/><circle class="cls-4" cx="67.06" cy="67.06" r="63.06"/><path class="cls-3" d="M174.26 4a63.06 63.06 0 11-63.06 63.06A63.06 63.06 0 01174.26 4"/><circle class="cls-4" cx="174.26" cy="67.06" r="63.06"/><path class="cls-5" d="M198 31.21a26.68 26.68 0 00-23.76 14.26v2.37c.07-.15 3.19-7.12 11.12-7.12 1.12 0 12.64.81 12.64 13.62C198 70.49 174.39 74 174.26 74v38s47.52-17.64 47.52-52.28c0-27.36-21.36-28.51-23.76-28.51"/><path class="cls-6" d="M150.5 54.33c0-12.8 11.51-13.62 12.64-13.62 7.94 0 11.05 7 11.11 7.12v-2.37a26.68 26.68 0 00-23.76-14.26c-2.4 0-23.76 1.15-23.76 28.51 0 34.63 47.52 48.49 47.52 48.49V78.73c-.1 0-23.75-8.24-23.75-24.4"/><path class="cls-5" d="M59.73 86.33V41a4.58 4.58 0 00-9.15 0v45.33H44.8V41a10.34 10.34 0 0117.65-7.27l.18.19.16-.16a10.32 10.32 0 0117.61 7.29v45.3h-5.74V41.07a4.58 4.58 0 00-9.15 0v45.28z"/><path class="cls-6" d="M92.45 31v79.06H86.7V100a30.49 30.49 0 01-3.07 3.59 29.92 29.92 0 01-21.19 8.81 30.08 30.08 0 01-30-30V30.75h5.74v51.67a24.35 24.35 0 0024.27 24.27A24.35 24.35 0 0086.7 82.47V31z"/></g></svg>